<svg xmlns="http://www.w3.org/2000/svg" version="1.1" xmlns:xlink="http://www.w3.org/1999/xlink" viewBox="0 0 700 700" style="overflow: hidden; display: block;" width="700" height="700"><defs></defs><g id="two-0" transform="matrix(1 0 0 1 0 0)" opacity="1"><path transform="matrix(1 0 0 1 350 350)" id="two-334" d="M 330.368279 97.004879 C 330.681937 131.402595 277.601397 144.810812 245.823324 157.981057 C 216.32946 170.204625 181.299751 165.741621 150.32683 173.48641 C 129.519614 178.68926 104.444923 179.797394 88.821148 194.491186 C 60.333331 221.283307 71.097771 276.15453 43.720118 304.080102 C 20.222402 328.048087 -20.273934 361.057953 -49.552535 344.645444 C -102.116343 315.180101 -24.458547 196.910816 -74.803296 163.796369 C -100.005694 147.219397 -132.775895 187.722164 -162.939686 188.042421 C -194.623773 188.37882 -245.050213 194.265411 -256.038141 164.545721 C -271.841823 121.800582 -173.762809 97.274726 -176.325265 51.773769 C -177.611942 28.926522 -207.144823 17.006545 -222.455917 0 C -249.059077 -29.549023 -299.470078 -49.573123 -303.532629 -89.125222 C -306.539915 -118.403489 -271.926607 -139.897457 -258.180616 -165.922607 C -243.596883 -193.533848 -248.392909 -244.389659 -218.010008 -251.596962 C -152.270579 -267.191389 -118.783505 -97.463781 -57.091939 -125.013907 C -0.339229 -150.358447 -94.333467 -275.166986 -44.998734 -312.973069 C -21.628601 -330.882018 17.213675 -310.492186 42.465028 -295.350759 C 68.927057 -279.483376 72.731302 -233.166583 101.931883 -223.199692 C 138.419127 -210.745682 191.423233 -278.934138 215.8536 -249.108335 C 251.410363 -205.698877 115.716974 -141.067925 146.230098 -93.976378 C 177.521611 -45.683528 302.846634 -148.873777 320.606998 -94.138709 C 336.958119 -43.746737 190.034353 -52.975744 190.563999 -0.000001 C 191.125388 56.150728 329.856261 40.853678 330.368279 97.004879 Z " fill="#45985b" stroke="undefined" stroke-width="1" stroke-opacity="1" fill-opacity="1" visibility="visible" stroke-linecap="butt" stroke-linejoin="miter" stroke-miterlimit="4"></path></g></svg>